<svg width="216" height="414" viewBox="0 0 216 414" fill="none" xmlns="http://www.w3.org/2000/svg">
<path d="M120.412 40.8395C123.73 30.5065 138.631 31.3826 140.714 42.0332L213.389 413.483L16.6535 407.915C9.66242 407.717 4.81513 400.868 6.9532 394.209L120.412 40.8395Z" fill="#262626" stroke="#F5F5F0"/>
<path fill-rule="evenodd" clip-rule="evenodd" d="M76.4313 180.905C81.5751 171.806 84.9257 172.77 80.2625 181.568C75.5993 190.366 7.09608 388.465 7.46265 399.561C7.82922 410.656 0.964947 401.052 1.38072 399.36C1.79649 397.669 71.2875 190.004 76.4313 180.905Z" fill="black"/>
<path fill-rule="evenodd" clip-rule="evenodd" d="M11.7939 409.798C2.91304 407.657 2.79476 403.944 11.2979 405.7C19.801 407.456 201.337 410.085 210.362 405.981C219.388 401.877 213.354 412.051 211.85 412.199C210.346 412.348 20.6748 411.939 11.7939 409.798Z" fill="black"/>
</svg>
