<svg width="76" height="116" viewBox="0 0 76 116" fill="none" xmlns="http://www.w3.org/2000/svg">
<path d="M32.412 40L31.9123 40.0179L31.9203 40.2424L32.0936 40.3855L32.412 40ZM32.412 40C32.0936 40.3855 32.0938 40.3857 32.0942 40.386L32.0962 40.3877L32.104 40.3941L32.1352 40.4199L32.258 40.5213L32.735 40.9154L34.5301 42.3982L40.8045 47.5808C45.9217 51.8074 52.5624 57.2918 58.6562 62.3231C59.9869 63.4218 61.2915 64.4989 62.5485 65.5365C58.7455 63.4695 55.633 62.5172 53.1008 62.1916C49.0668 61.673 46.5481 62.7562 45.1755 63.3466C45.0092 63.4181 44.8597 63.4824 44.7263 63.5358C43.4389 64.0507 41.3546 64.9642 39.2178 67.4895C37.089 70.0054 34.9361 74.0867 33.4239 80.8916C31.9043 87.7299 32.4146 96.5518 33.2908 103.624C33.7299 107.168 34.263 110.288 34.6864 112.523C34.6979 112.584 34.7094 112.644 34.7208 112.704L24.4054 93.3626L21.9113 46.4734L21.8942 46.1522L21.5948 46.0346L7.85738 40.6378L1.14698 1.33403C1.1577 1.34366 1.16849 1.35335 1.17935 1.36311C1.88273 1.99518 2.89084 2.89975 4.10993 3.9899C6.54802 6.17013 9.83035 9.09297 13.2067 12.0629C16.5826 15.0324 20.0545 18.0509 22.8712 20.4216C24.2792 21.6067 25.5264 22.6323 26.5173 23.4099C27.4911 24.1741 28.2592 24.7326 28.6884 24.9472C28.9345 25.0703 29.209 25.3537 29.4896 25.8448C29.7652 26.327 30.018 26.9587 30.2466 27.7017C30.7036 29.1867 31.043 31.0461 31.2916 32.8797C31.5396 34.7092 31.695 36.4947 31.7882 37.8241C31.8349 38.4884 31.8659 39.0378 31.8853 39.4208C31.895 39.6123 31.9018 39.7621 31.9061 39.8637L31.9109 39.9793L31.912 40.0085L31.9122 40.0157L31.9123 40.0174L31.9123 40.0178L32.412 40Z" fill="#E0E0E0" stroke="black"/>
</svg>
