<svg width="90" height="101" viewBox="0 0 90 101" fill="none" xmlns="http://www.w3.org/2000/svg">
<path d="M67.8373 54.6748L67.6044 55.1172L67.4056 55.0126L67.3518 54.7944L67.8373 54.6748ZM67.8373 54.6748C67.3518 54.7944 67.3518 54.7941 67.3516 54.7936L67.351 54.7911L67.3486 54.7812L67.3389 54.742L67.3008 54.5874L67.1528 53.9865L66.5959 51.7258L64.6496 43.8239C63.0625 37.3795 61.0033 29.0167 59.115 21.3432C58.7026 19.6675 58.2984 18.0247 57.9091 16.4419C58.1209 20.7652 57.6282 23.9826 56.8226 26.4053C55.5392 30.2646 53.4702 32.0637 52.3427 33.0441C52.2061 33.1629 52.0832 33.2697 51.9773 33.3667C50.9547 34.3031 49.2272 35.7845 46.0247 36.6137C42.8343 37.4398 38.223 37.6082 31.4361 36.0175C24.6158 34.4189 16.8894 30.1308 10.8981 26.2723C7.89553 24.3386 5.31582 22.5042 3.48654 21.1532C3.4365 21.1162 3.38704 21.0796 3.33813 21.0434L16.2868 38.7305L57.4482 61.3259L57.7302 61.4807L57.7062 61.8015L56.6068 76.52L89.1045 99.6222C89.1005 99.6083 89.0964 99.5944 89.0924 99.5804C88.8282 98.6724 88.4507 97.3716 87.9976 95.8002C87.0914 92.6575 85.8826 88.432 84.6721 84.1012C83.4618 79.7711 82.2491 75.3332 81.3357 71.7668C80.879 69.984 80.4962 68.4153 80.2257 67.185C79.9598 65.9761 79.7899 65.0417 79.7829 64.562C79.7788 64.2868 79.6426 63.9166 79.322 63.4506C79.0071 62.9931 78.5477 62.4912 77.9775 61.9627C76.8379 60.9066 75.31 59.7939 73.766 58.7742C72.2253 57.7568 70.6842 56.842 69.527 56.1811C68.9487 55.8508 68.4672 55.5844 68.1306 55.4007C67.9623 55.3089 67.8303 55.2378 67.7405 55.1897L67.6385 55.1353L67.6126 55.1216L67.6063 55.1182L67.6048 55.1174L67.6044 55.1173L67.8373 54.6748Z" fill="#E0E0E0" stroke="black"/>
</svg>
