<svg width="170" height="414" viewBox="0 0 170 414" fill="none" xmlns="http://www.w3.org/2000/svg">
<path d="M78.3154 412.974L1.17107 3.51514L158.089 322.678C160.066 326.7 159.273 331.534 156.113 334.713L78.3154 412.974Z" fill="#242424" stroke="#F5F5F0"/>
<path d="M36.4373 165.793L35.5102 166.136L51.7074 245.136L51.8304 245.736L52.3937 245.495L74.6966 235.96L75.2058 235.742L74.9373 235.258L36.4373 165.793Z" fill="#F5F5F0" stroke="black"/>
<path d="M52.7162 244.745L51.7961 245.1L67.7961 323.6L67.9373 324.292L68.5433 323.929L91.0433 310.429L91.4696 310.173L91.2162 309.745L52.7162 244.745Z" fill="#F5F5F0" stroke="black"/>
<path d="M70.3919 326.046L69.5076 326.443L80.6505 389.443L80.8153 390.375L81.4923 389.714L103.349 368.358L103.672 368.043L103.392 367.689L70.3919 326.046Z" fill="#F5F5F0" stroke="black"/>
<path d="M80.7883 168.579L81.7318 168.282L107.45 221.282L107.677 221.75L107.2 221.958L91.1237 228.958L90.5327 229.216L90.4304 228.579L80.7883 168.579Z" fill="#F5F5F0" stroke="black"/>
<path d="M106.513 221.615L107.452 221.285L131.952 272.785L132.126 273.152L131.803 273.398L121.303 281.398L120.69 281.865L120.513 281.115L106.513 221.615Z" fill="#F5F5F0" stroke="black"/>
<path d="M130.935 273.559L131.878 273.276L155.947 321.276L156.111 321.604L155.848 321.859L139.348 337.859L138.622 338.563L138.503 337.559L130.935 273.559Z" fill="#F5F5F0" stroke="black"/>
<path d="M138.096 375.435C138.133 375.588 138.127 375.674 138.123 375.707C138.118 375.741 138.109 375.764 138.097 375.787C138.066 375.841 137.975 375.945 137.799 376.017C137.623 376.089 137.485 376.078 137.425 376.061C137.4 376.054 137.378 376.043 137.351 376.022C137.325 376.002 137.26 375.945 137.18 375.809L62.0419 248.653L102.587 231.336L138.096 375.435Z" fill="#242424" stroke="#F5F5F0" stroke-width="7"/>
<path fill-rule="evenodd" clip-rule="evenodd" d="M88.1771 179.97C83.6279 174.141 81.1678 175.224 85.3321 180.898C89.4964 186.571 155.699 318.674 156.232 326.576C156.766 334.478 161.248 326.854 160.811 325.706C160.373 324.558 92.7263 185.798 88.1771 179.97Z" fill="black"/>
<path fill-rule="evenodd" clip-rule="evenodd" d="M32.0361 182.94C31.9189 172.489 35.3005 171.641 35.6826 181.591C36.0646 191.541 76.2298 397.266 82.1152 406.679C88.0007 416.092 77.2432 411.23 76.754 409.558C76.2647 407.886 32.1533 193.392 32.0361 182.94Z" fill="black"/>
<path fill-rule="evenodd" clip-rule="evenodd" d="M83.8225 408.805C80.6339 409.27 78.1035 406.877 80.958 406.24C83.8126 405.603 121.216 369.304 120.216 364.741C119.216 360.178 124.902 368.068 124.707 368.48C124.512 368.892 87.0111 408.34 83.8225 408.805Z" fill="black"/>
<path fill-rule="evenodd" clip-rule="evenodd" d="M138.959 352.758C136.383 352.404 133.699 349.839 135.953 349.975C138.208 350.111 161.269 328.794 159.369 324.792C157.47 320.791 164.084 328.627 164.016 328.922C163.947 329.217 141.534 353.113 138.959 352.758Z" fill="black"/>
</svg>
