<svg width="317" height="286" viewBox="0 0 317 286" fill="none" xmlns="http://www.w3.org/2000/svg">
<path d="M136.722 1.92688L309.188 208.407C313.266 213.289 312.365 220.602 307.225 224.349L228.222 281.927L136.722 1.92688Z" fill="#F5F5F0"/>
<path d="M135.722 2.42688L226.722 281.927H13.5345C5.35386 281.927 0.0355778 273.315 3.6993 266L135.722 2.42688Z" fill="#E0E0E0"/>
<path d="M159.575 179.493C153.286 203.2 131.175 217.796 110.274 212.251C89.3727 206.706 77.405 183.069 83.6943 159.362C89.9836 135.655 112.095 121.059 132.996 126.604C153.897 132.149 165.865 155.786 159.575 179.493Z" stroke="#F5F5F0"/>
<path d="M159.575 179.493C153.286 203.2 131.175 217.796 110.274 212.251C89.3727 206.706 77.405 183.069 83.6943 159.362C89.9836 135.655 112.095 121.059 132.996 126.604C153.897 132.149 165.865 155.786 159.575 179.493Z" stroke="#242424"/>
<path fill-rule="evenodd" clip-rule="evenodd" d="M13.8836 283.836C4.53358 282.395 4.3687 279.71 13.3178 280.878C22.2669 282.046 212.942 281.763 222.375 278.685C231.809 275.608 225.584 283.04 224.006 283.166C222.428 283.292 23.2337 285.278 13.8836 283.836Z" fill="black"/>
<path fill-rule="evenodd" clip-rule="evenodd" d="M129.731 10.2975C136.72 -0.573522 139.22 0.426882 132.72 10.9268C126.22 21.4267 10.2226 256.427 7.22211 269.427C4.22165 282.427 1.37291 271.427 2.22266 269.427C3.0724 267.427 122.741 21.1685 129.731 10.2975Z" fill="black"/>
<path fill-rule="evenodd" clip-rule="evenodd" d="M141.615 11.2385C136.336 -0.0167907 133.725 0.63865 138.577 11.4794C143.428 22.3202 222.969 261.382 224.003 274.193C225.037 287.005 229.471 276.816 228.929 274.798C228.388 272.78 146.894 22.4938 141.615 11.2385Z" fill="black"/>
<path fill-rule="evenodd" clip-rule="evenodd" d="M310.86 221.177C313.811 217.201 312.307 214.974 309.359 218.608C306.41 222.242 228.864 279.257 223.235 279.593C217.606 279.93 224.481 284.088 225.195 283.717C225.908 283.345 307.909 225.154 310.86 221.177Z" fill="black"/>
<path fill-rule="evenodd" clip-rule="evenodd" d="M141.447 7.64974C132.748 -0.429285 130.568 1.15029 138.733 9.0202C146.898 16.8901 301.686 200.87 307.009 211.956C312.333 223.042 312.936 212.229 311.749 210.626C310.562 209.024 150.147 15.7288 141.447 7.64974Z" fill="black"/>
</svg>
