<svg width="107" height="137" viewBox="0 0 107 137" fill="none" xmlns="http://www.w3.org/2000/svg">
<path d="M37.2502 118.72C33.74 124.644 24.7708 123.103 23.4393 116.347L2.40806 9.63281C1.48357 4.94193 5.12537 0.5952 9.90565 0.683884L93.2519 2.23047C99.0003 2.33714 102.496 8.60612 99.5651 13.5524L37.2502 118.72Z" fill="#262626" stroke="#F5F5F0"/>
<path fill-rule="evenodd" clip-rule="evenodd" d="M37.9941 122.461C35.1133 123.744 31.715 122.249 34.2054 120.901C36.6957 119.552 58.0738 76.4604 55.2749 72.5805C52.476 68.7006 61.123 74.343 61.1013 74.7699C61.0796 75.1968 40.875 121.179 37.9941 122.461Z" fill="black"/>
<path fill-rule="evenodd" clip-rule="evenodd" d="M13.0296 72.5543C14.5091 69.7695 18.1068 68.8537 16.9756 71.4499C15.8444 74.0462 25.5461 121.161 30.1408 122.494C34.7356 123.826 24.4482 124.707 24.2023 124.358C23.9564 124.008 11.5501 75.339 13.0296 72.5543Z" fill="black"/>
</svg>
